<svg xmlns="http://www.w3.org/2000/svg" viewBox="0 0 350 310"><style>.st0{fill:#003685;} .st1{fill:#CBD300;}</style><path class="st0" d="M109.3 160.3l13.4-27.4H98.5l1-6c2.2-12.3 9.6-22.5 21.4-22.5 4.4 0 8.2.7 11.5 2l15.5-26c-4-1.6-19.8-5.4-28.3-5.4-12 0-25.2 3.3-35.3 11.6-12.3 10.2-18 25.4-21 40l-1 6.3h-16L37 160.2h20.3l-20 97h35.3l21-97h15.7zM175 141c-30.5-2-63.5 7.5-71.3 52.6l-12.3 64h36.3L137 207c4.8-24 12.6-38.2 29.7-38.2 9.3 0 12.8 6.3 13 14 0 4-.5 8.3-1 12l-12 63h36.4l11-59.5c1-5.3 1.8-13.3 1.7-18.2-.5-18.8-8.3-37-40.6-39zm122.8.7c-55.7 0-81.2 40.4-81.2 78.2 0 23.3 14 38.4 34.3 38.4 13 0 22.3.4 31.6-.4l30-.6c-.4-14 22.4-110.2 22.4-110.2-9-3-23.5-5.5-37.2-5.5zm3.4 30.5l-5 23c-5.2 27.3-14.6 38.4-34 38.4-9.6 0-14.3-7.5-14.3-18.4 0-20.7 21.3-46.7 44-46.7 3.6 0 10.2-.2 9.2 3.7zM162 308.6h-7.3l-.7-6.4h-8.5l-2.8 6.4h-7.2l14-29h7.5l5 29zm-8.5-10.4l-1.3-11-4.8 11h6zM195.4 279.8l-4.2 29h-7l1.6-11.3h-13l-1.7 11.2h-7l4-29h7.2l-1.5 10.8h13l1.6-10.7h7zM226.8 292.6c0 2.3-.4 4.5-1 6.5-.8 2-2 3.8-3.3 5.3-1.4 1.5-3 2.6-5 3.5-2 .8-4.2 1.2-6.7 1.2-2.2 0-4.4-.4-6.5-1.3-2-1-4-2.3-5.3-4.3-1.4-2-2-4.5-2-7.5 0-2.7.3-5 1.2-7.2 1-2 2-3.8 3.6-5.2 1.5-1.4 3.3-2.5 5.2-3.2 2-.7 4-1 6-1 2.7 0 5 .4 7 1.5 2 1 3.7 2.5 5 4.5 1.3 2 1.8 4.4 1.8 7zm-7.4.5c0-1.4-.3-2.6-.8-3.7-.6-1-1.3-2-2.3-2.5-1-.6-2-1-3.3-1-1.8 0-3.3.6-4.6 1.6-1.3 1-2.3 2.2-3 3.7-.6 1.6-1 3-1 4.6 0 2 .7 3.6 1.8 5 1.2 1.4 2.8 2 4.8 2 1.3 0 2.5-.2 3.5-.8 1-.5 2-1.2 2.7-2 .7-1 1.3-2 1.7-3.2.2-1.2.4-2.3.4-3.5zM254.3 308.6h-7.7l-2.8-6-2-4c-.7-1-1.2-1.6-1.7-1.8-.3-.2-1-.3-1.7-.3h-1l-2 12h-7l4-28.8h11c3.8 0 6.5 1 8 2.7 1.3 1.8 2 3.7 2 5.8 0 2.2-.6 4-1.8 5.2-1.2 1.2-2.8 2-5 2.3 1.2.6 2 1.4 2.6 2.2.7.8 1.4 2 2.2 4l3 6.6zM246 288c0-1-.4-2-1.2-2.8-.8-.8-2.4-1.2-4.7-1.2h-1l-1.2 8.3h2.8c2 0 3.4-.4 4.2-1.3.8-1 1.2-1.8 1.2-3zM281.5 308.6h-7.7l-2.8-6-2-4c-.7-1-1.2-1.6-1.7-1.8-.4-.2-1-.3-1.8-.3h-1l-2 12h-7l4-28.8h11c3.8 0 6.5 1 8 2.7 1.3 1.8 2 3.7 2 5.8 0 2.2-.6 4-1.8 5.2-1.2 1.2-2.8 2-5 2.3 1.2.6 2 1.4 2.6 2.2.6.8 1.3 2 2 4l3.2 6.6zm-8.3-20.5c0-1-.4-2-1.2-2.8-.8-.8-2.4-1.2-4.7-1.2h-1l-1.3 8.3h2.8c2 0 3.4-.4 4.2-1.3.8-1 1.2-1.8 1.2-3zM312.8 292.6c0 2.3-.4 4.5-1 6.5-1 2-2 3.8-3.3 5.3-1.4 1.5-3 2.6-5 3.5-2 .8-4.2 1.2-6.7 1.2-2.2 0-4.4-.4-6.5-1.3-2-1-4-2.3-5.3-4.3-1.4-2-2-4.5-2-7.5 0-2.7.3-5 1.2-7.2 1-2 2-3.8 3.6-5.2 1.5-1.4 3.3-2.5 5.2-3.2 2-.7 4-1 6.2-1 2.6 0 5 .4 7 1.5 2 1 3.6 2.5 4.7 4.5 1.2 2 1.8 4.4 1.8 7zm-7.4.5c0-1.4-.3-2.6-.8-3.7-.5-1-1.3-2-2.3-2.5-1-.6-2-1-3.3-1-1.8 0-3.3.6-4.6 1.6-1.3 1-2.3 2.2-3 3.7-.6 1.6-1 3-1 4.6 0 2 .7 3.6 2 5 1 1.4 2.7 2 4.7 2 1.4 0 2.6-.2 3.6-.8 1-.5 2-1.2 2.7-2 .8-1 1.3-2 1.7-3.2.2-1.2.4-2.3.4-3.5z"/><path class="st1" d="M342.6 102C291.4 75.2 217 47.4 194 40 108.3 57 20 94 9.5 97.4c-8.8 3-11.2-4-5.7-7.5C35.5 71 158.6 12 190.5 2.7c7-2 8.6-2.3 12-.5C229 16 309.7 69.2 346 94.7c5 3.7 3.5 11-3.4 7.3z"/></svg>